<mxfile host="app.diagrams.net" agent="Mozilla/5.0 (Windows NT 10.0; Win64; x64) AppleWebKit/537.36 (KHTML, like Gecko) Chrome/134.0.0.0 Safari/537.36 OPR/119.0.0.0" version="27.1.3">
  <diagram name="Página-1" id="6KHD1xoKYFAmq-X659Jm">
    <mxGraphModel dx="2490" dy="983" grid="1" gridSize="10" guides="1" tooltips="1" connect="1" arrows="1" fold="1" page="1" pageScale="1" pageWidth="827" pageHeight="1169" math="0" shadow="0">
      <root>
        <mxCell id="0" />
        <mxCell id="1" parent="0" />
        <mxCell id="orrpec60x8zTDL4D4XrW-98" value="&lt;p style=&quot;margin:0px;margin-top:4px;text-align:center;&quot;&gt;&lt;b&gt;Cliente&lt;/b&gt;&lt;/p&gt;&lt;hr size=&quot;1&quot; style=&quot;border-style:solid;&quot;&gt;&lt;p style=&quot;margin:0px;margin-left:4px;&quot;&gt;- id: String&lt;/p&gt;&lt;p style=&quot;margin:0px;margin-left:4px;&quot;&gt;- nombre: String&lt;/p&gt;&lt;hr size=&quot;1&quot; style=&quot;border-style:solid;&quot;&gt;&lt;p style=&quot;margin:0px;margin-left:4px;&quot;&gt;&lt;br&gt;&lt;/p&gt;" style="verticalAlign=top;align=left;overflow=fill;html=1;whiteSpace=wrap;" parent="1" vertex="1">
          <mxGeometry x="-810" y="28.75" width="160" height="80" as="geometry" />
        </mxCell>
        <mxCell id="orrpec60x8zTDL4D4XrW-99" value="&lt;p style=&quot;margin:0px;margin-top:4px;text-align:center;&quot;&gt;&lt;b&gt;Venta&lt;/b&gt;&lt;/p&gt;&lt;hr size=&quot;1&quot; style=&quot;border-style:solid;&quot;&gt;&lt;p style=&quot;margin:0px;margin-left:4px;&quot;&gt;- numeroFactura: String&lt;/p&gt;&lt;p style=&quot;margin:0px;margin-left:4px;&quot;&gt;- cliente: Cliente&lt;/p&gt;&lt;p style=&quot;margin:0px;margin-left:4px;&quot;&gt;- fecha: LocalDate&lt;/p&gt;&lt;p style=&quot;margin:0px;margin-left:4px;&quot;&gt;- objetos List&amp;lt;ObjetoVenta&amp;gt;&lt;/p&gt;&lt;hr size=&quot;1&quot; style=&quot;border-style:solid;&quot;&gt;&lt;p style=&quot;margin:0px;margin-left:4px;&quot;&gt;&lt;br&gt;&lt;/p&gt;" style="verticalAlign=top;align=left;overflow=fill;html=1;whiteSpace=wrap;" parent="1" vertex="1">
          <mxGeometry x="-590" y="18.75" width="160" height="100" as="geometry" />
        </mxCell>
        <mxCell id="orrpec60x8zTDL4D4XrW-103" value="&lt;p style=&quot;margin:0px;margin-top:4px;text-align:center;&quot;&gt;&lt;b&gt;ObjetoVenta&lt;/b&gt;&lt;/p&gt;&lt;hr size=&quot;1&quot; style=&quot;border-style:solid;&quot;&gt;&lt;p style=&quot;margin:0px;margin-left:4px;&quot;&gt;- producto: Producto&lt;/p&gt;&lt;p style=&quot;margin:0px;margin-left:4px;&quot;&gt;- cantidad: int&lt;/p&gt;&lt;hr size=&quot;1&quot; style=&quot;border-style:solid;&quot;&gt;&lt;p style=&quot;margin:0px;margin-left:4px;&quot;&gt;+ calcularTotales(): void&lt;/p&gt;" style="verticalAlign=top;align=left;overflow=fill;html=1;whiteSpace=wrap;" parent="1" vertex="1">
          <mxGeometry x="-590" y="156.75" width="160" height="90" as="geometry" />
        </mxCell>
        <mxCell id="orrpec60x8zTDL4D4XrW-107" value="&lt;p style=&quot;margin:0px;margin-top:4px;text-align:center;&quot;&gt;&lt;b&gt;&lt;font style=&quot;vertical-align: inherit;&quot;&gt;&lt;font style=&quot;vertical-align: inherit;&quot;&gt;&lt;font style=&quot;vertical-align: inherit;&quot;&gt;&lt;font style=&quot;vertical-align: inherit;&quot;&gt;Producto&lt;/font&gt;&lt;/font&gt;&lt;/font&gt;&lt;/font&gt;&lt;/b&gt;&lt;/p&gt;&lt;hr size=&quot;1&quot; style=&quot;border-style:solid;&quot;&gt;&lt;p style=&quot;margin:0px;margin-left:4px;&quot;&gt;&lt;font style=&quot;vertical-align: inherit;&quot;&gt;&lt;font style=&quot;vertical-align: inherit;&quot;&gt;&lt;font style=&quot;vertical-align: inherit;&quot;&gt;&lt;font style=&quot;vertical-align: inherit;&quot;&gt;- código: String&lt;/font&gt;&lt;/font&gt;&lt;/font&gt;&lt;/font&gt;&lt;br&gt;&lt;/p&gt;&lt;p style=&quot;margin:0px;margin-left:4px;&quot;&gt;&lt;font style=&quot;vertical-align: inherit;&quot;&gt;&lt;font style=&quot;vertical-align: inherit;&quot;&gt;&lt;font style=&quot;vertical-align: inherit;&quot;&gt;&lt;font style=&quot;vertical-align: inherit;&quot;&gt;- descripción: String&lt;/font&gt;&lt;/font&gt;&lt;/font&gt;&lt;/font&gt;&lt;/p&gt;&lt;p style=&quot;margin:0px;margin-left:4px;&quot;&gt;&lt;font style=&quot;vertical-align: inherit;&quot;&gt;&lt;font style=&quot;vertical-align: inherit;&quot;&gt;&lt;font style=&quot;vertical-align: inherit;&quot;&gt;&lt;font style=&quot;vertical-align: inherit;&quot;&gt;- precio: double&lt;/font&gt;&lt;/font&gt;&lt;/font&gt;&lt;/font&gt;&lt;/p&gt;&lt;hr size=&quot;1&quot; style=&quot;border-style:solid;&quot;&gt;&lt;p style=&quot;margin:0px;margin-left:4px;&quot;&gt;&lt;br&gt;&lt;/p&gt;" style="verticalAlign=top;align=left;overflow=fill;html=1;whiteSpace=wrap;" parent="1" vertex="1">
          <mxGeometry x="-240" y="71.75" width="180" height="92" as="geometry" />
        </mxCell>
        <mxCell id="orrpec60x8zTDL4D4XrW-108" value="&lt;p style=&quot;margin:0px;margin-top:4px;text-align:center;&quot;&gt;&lt;b&gt;Perecedero&lt;/b&gt;&lt;/p&gt;&lt;hr size=&quot;1&quot; style=&quot;border-style:solid;&quot;&gt;&lt;p style=&quot;margin:0px;margin-left:4px;&quot;&gt;- diasCaducar: int&lt;br&gt;&lt;/p&gt;&lt;hr size=&quot;1&quot; style=&quot;border-style:solid;&quot;&gt;&lt;p style=&quot;margin:0px;margin-left:4px;&quot;&gt;+ calcularPrecioVenta(): double&lt;/p&gt;" style="verticalAlign=top;align=left;overflow=fill;html=1;whiteSpace=wrap;" parent="1" vertex="1">
          <mxGeometry x="-400" y="273.75" width="180" height="90" as="geometry" />
        </mxCell>
        <mxCell id="orrpec60x8zTDL4D4XrW-109" value="&lt;p style=&quot;margin:0px;margin-top:4px;text-align:center;&quot;&gt;&lt;b&gt;NoPerecedero&lt;/b&gt;&lt;/p&gt;&lt;hr size=&quot;1&quot; style=&quot;border-style:solid;&quot;&gt;&lt;p style=&quot;margin:0px;margin-left:4px;&quot;&gt;- tipo: int&lt;br&gt;&lt;/p&gt;&lt;hr size=&quot;1&quot; style=&quot;border-style:solid;&quot;&gt;&lt;p style=&quot;margin:0px;margin-left:4px;&quot;&gt;+ calcularPrecioVenta(): double&lt;/p&gt;" style="verticalAlign=top;align=left;overflow=fill;html=1;whiteSpace=wrap;" parent="1" vertex="1">
          <mxGeometry x="-65" y="273.75" width="180" height="90" as="geometry" />
        </mxCell>
        <mxCell id="orrpec60x8zTDL4D4XrW-110" value="es un" style="endArrow=block;endSize=16;endFill=0;html=1;rounded=0;entryX=0.25;entryY=1;entryDx=0;entryDy=0;exitX=0.5;exitY=0;exitDx=0;exitDy=0;" parent="1" source="orrpec60x8zTDL4D4XrW-108" target="orrpec60x8zTDL4D4XrW-107" edge="1">
          <mxGeometry width="160" relative="1" as="geometry">
            <mxPoint x="-330" y="423.75" as="sourcePoint" />
            <mxPoint x="-170" y="423.75" as="targetPoint" />
          </mxGeometry>
        </mxCell>
        <mxCell id="orrpec60x8zTDL4D4XrW-111" value="es un" style="endArrow=block;endSize=16;endFill=0;html=1;rounded=0;entryX=0.75;entryY=1;entryDx=0;entryDy=0;exitX=0.5;exitY=0;exitDx=0;exitDy=0;" parent="1" source="orrpec60x8zTDL4D4XrW-109" target="orrpec60x8zTDL4D4XrW-107" edge="1">
          <mxGeometry width="160" relative="1" as="geometry">
            <mxPoint x="-260" y="283.75" as="sourcePoint" />
            <mxPoint x="-205" y="211.75" as="targetPoint" />
          </mxGeometry>
        </mxCell>
        <mxCell id="orrpec60x8zTDL4D4XrW-120" value="&lt;p style=&quot;margin:0px;margin-top:4px;text-align:center;&quot;&gt;&lt;b&gt;ProductoDAO&lt;/b&gt;&lt;/p&gt;&lt;hr size=&quot;1&quot; style=&quot;border-style:solid;&quot;&gt;&lt;p style=&quot;margin:0px;margin-left:4px;&quot;&gt;List&amp;lt;Producto&amp;gt; listaProducto&lt;/p&gt;&lt;hr size=&quot;1&quot; style=&quot;border-style:solid;&quot;&gt;&lt;p style=&quot;margin:0px;margin-left:4px;&quot;&gt;+ guardarProducto(): void&lt;/p&gt;&lt;p style=&quot;margin:0px;margin-left:4px;&quot;&gt;+&amp;nbsp;actualizarProducto(): void&lt;/p&gt;&lt;p style=&quot;margin:0px;margin-left:4px;&quot;&gt;+&amp;nbsp;eliminarProducto(): void&lt;/p&gt;&lt;p style=&quot;margin:0px;margin-left:4px;&quot;&gt;+ buscarProducto(): Producto&lt;/p&gt;&lt;p style=&quot;margin:0px;margin-left:4px;&quot;&gt;+ lista(): List&amp;lt;Producto&amp;gt;&lt;/p&gt;" style="verticalAlign=top;align=left;overflow=fill;html=1;whiteSpace=wrap;" parent="1" vertex="1">
          <mxGeometry x="-235" y="387.5" width="170" height="132.5" as="geometry" />
        </mxCell>
        <mxCell id="orrpec60x8zTDL4D4XrW-122" value="&lt;p style=&quot;margin:0px;margin-top:4px;text-align:center;&quot;&gt;&lt;b&gt;VentaDAO&lt;/b&gt;&lt;/p&gt;&lt;hr size=&quot;1&quot; style=&quot;border-style:solid;&quot;&gt;&lt;p style=&quot;margin:0px;margin-left:4px;&quot;&gt;List&amp;lt;Venta&amp;gt;&lt;/p&gt;&lt;hr size=&quot;1&quot; style=&quot;border-style:solid;&quot;&gt;&lt;p style=&quot;margin:0px;margin-left:4px;&quot;&gt;+ guardarVenta(): void&lt;/p&gt;&lt;p style=&quot;margin:0px;margin-left:4px;&quot;&gt;+ buscarVenta(): void&lt;/p&gt;&lt;p style=&quot;margin:0px;margin-left:4px;&quot;&gt;+ listar: List&amp;lt;Venta&amp;gt;&lt;/p&gt;" style="verticalAlign=top;align=left;overflow=fill;html=1;whiteSpace=wrap;" parent="1" vertex="1">
          <mxGeometry x="-590" y="298.75" width="160" height="130" as="geometry" />
        </mxCell>
        <mxCell id="cY8aMTrf5FRth4diQvGf-14" value="ControladorCliente" style="swimlane;fontStyle=1;align=center;verticalAlign=top;childLayout=stackLayout;horizontal=1;startSize=26;horizontalStack=0;resizeParent=1;resizeParentMax=0;resizeLast=0;collapsible=1;marginBottom=0;whiteSpace=wrap;html=1;" parent="1" vertex="1">
          <mxGeometry x="390" y="244" width="160" height="120" as="geometry" />
        </mxCell>
        <mxCell id="cY8aMTrf5FRth4diQvGf-15" value="- vista : VistaCliente&lt;div&gt;- modelo : ClienteDAO&lt;/div&gt;&lt;div&gt;- cliente : Cliente&lt;/div&gt;" style="text;strokeColor=none;fillColor=none;align=left;verticalAlign=top;spacingLeft=4;spacingRight=4;overflow=hidden;rotatable=0;points=[[0,0.5],[1,0.5]];portConstraint=eastwest;whiteSpace=wrap;html=1;" parent="cY8aMTrf5FRth4diQvGf-14" vertex="1">
          <mxGeometry y="26" width="160" height="54" as="geometry" />
        </mxCell>
        <mxCell id="cY8aMTrf5FRth4diQvGf-16" value="" style="line;strokeWidth=1;fillColor=none;align=left;verticalAlign=middle;spacingTop=-1;spacingLeft=3;spacingRight=3;rotatable=0;labelPosition=right;points=[];portConstraint=eastwest;strokeColor=inherit;" parent="cY8aMTrf5FRth4diQvGf-14" vertex="1">
          <mxGeometry y="80" width="160" height="8" as="geometry" />
        </mxCell>
        <mxCell id="cY8aMTrf5FRth4diQvGf-17" value="+ actionPerformed()" style="text;strokeColor=none;fillColor=none;align=left;verticalAlign=top;spacingLeft=4;spacingRight=4;overflow=hidden;rotatable=0;points=[[0,0.5],[1,0.5]];portConstraint=eastwest;whiteSpace=wrap;html=1;" parent="cY8aMTrf5FRth4diQvGf-14" vertex="1">
          <mxGeometry y="88" width="160" height="32" as="geometry" />
        </mxCell>
        <mxCell id="cY8aMTrf5FRth4diQvGf-26" value="VistaCliente" style="swimlane;fontStyle=1;align=center;verticalAlign=top;childLayout=stackLayout;horizontal=1;startSize=26;horizontalStack=0;resizeParent=1;resizeParentMax=0;resizeLast=0;collapsible=1;marginBottom=0;whiteSpace=wrap;html=1;" parent="1" vertex="1">
          <mxGeometry x="170" y="278" width="160" height="34" as="geometry">
            <mxRectangle x="840" y="338" width="100" height="30" as="alternateBounds" />
          </mxGeometry>
        </mxCell>
        <mxCell id="cY8aMTrf5FRth4diQvGf-28" value="" style="line;strokeWidth=1;fillColor=none;align=left;verticalAlign=middle;spacingTop=-1;spacingLeft=3;spacingRight=3;rotatable=0;labelPosition=right;points=[];portConstraint=eastwest;strokeColor=inherit;" parent="cY8aMTrf5FRth4diQvGf-26" vertex="1">
          <mxGeometry y="26" width="160" height="8" as="geometry" />
        </mxCell>
        <mxCell id="cY8aMTrf5FRth4diQvGf-30" value="«interface»&lt;br&gt;&lt;div&gt;ActionListener&lt;/div&gt;" style="html=1;whiteSpace=wrap;" parent="1" vertex="1">
          <mxGeometry x="415" y="120" width="110" height="50" as="geometry" />
        </mxCell>
        <mxCell id="cY8aMTrf5FRth4diQvGf-32" value="" style="endArrow=diamondThin;endFill=0;endSize=24;html=1;rounded=0;entryX=0;entryY=0.5;entryDx=0;entryDy=0;" parent="1" source="cY8aMTrf5FRth4diQvGf-26" target="cY8aMTrf5FRth4diQvGf-15" edge="1">
          <mxGeometry width="160" relative="1" as="geometry">
            <mxPoint x="300" y="297" as="sourcePoint" />
            <mxPoint x="180" y="480" as="targetPoint" />
          </mxGeometry>
        </mxCell>
        <mxCell id="cY8aMTrf5FRth4diQvGf-33" value="" style="endArrow=diamondThin;endFill=1;endSize=24;html=1;rounded=0;entryX=1;entryY=0.5;entryDx=0;entryDy=0;exitX=0;exitY=0.5;exitDx=0;exitDy=0;" parent="1" target="cY8aMTrf5FRth4diQvGf-15" edge="1">
          <mxGeometry width="160" relative="1" as="geometry">
            <mxPoint x="600" y="268.0000000000001" as="sourcePoint" />
            <mxPoint x="180" y="350" as="targetPoint" />
          </mxGeometry>
        </mxCell>
        <mxCell id="cY8aMTrf5FRth4diQvGf-34" value="" style="endArrow=diamondThin;endFill=1;endSize=24;html=1;rounded=0;entryX=1;entryY=0.5;entryDx=0;entryDy=0;exitX=0;exitY=0.5;exitDx=0;exitDy=0;" parent="1" target="cY8aMTrf5FRth4diQvGf-17" edge="1">
          <mxGeometry width="160" relative="1" as="geometry">
            <mxPoint x="600" y="422" as="sourcePoint" />
            <mxPoint x="480" y="420" as="targetPoint" />
          </mxGeometry>
        </mxCell>
        <mxCell id="xdqGPpOZMYSwDx0PCrkx-5" value="Cliente" style="swimlane;fontStyle=1;align=center;verticalAlign=top;childLayout=stackLayout;horizontal=1;startSize=26;horizontalStack=0;resizeParent=1;resizeParentMax=0;resizeLast=0;collapsible=1;marginBottom=0;whiteSpace=wrap;html=1;" parent="1" vertex="1">
          <mxGeometry x="600" y="230" width="160" height="68" as="geometry" />
        </mxCell>
        <mxCell id="xdqGPpOZMYSwDx0PCrkx-6" value="&lt;p style=&quot;margin: 0px 0px 0px 4px;&quot;&gt;- id: String&lt;/p&gt;&lt;p style=&quot;margin: 0px 0px 0px 4px;&quot;&gt;- nombre: String&lt;/p&gt;" style="text;strokeColor=none;fillColor=none;align=left;verticalAlign=top;spacingLeft=4;spacingRight=4;overflow=hidden;rotatable=0;points=[[0,0.5],[1,0.5]];portConstraint=eastwest;whiteSpace=wrap;html=1;" parent="xdqGPpOZMYSwDx0PCrkx-5" vertex="1">
          <mxGeometry y="26" width="160" height="34" as="geometry" />
        </mxCell>
        <mxCell id="xdqGPpOZMYSwDx0PCrkx-7" value="" style="line;strokeWidth=1;fillColor=none;align=left;verticalAlign=middle;spacingTop=-1;spacingLeft=3;spacingRight=3;rotatable=0;labelPosition=right;points=[];portConstraint=eastwest;strokeColor=inherit;" parent="xdqGPpOZMYSwDx0PCrkx-5" vertex="1">
          <mxGeometry y="60" width="160" height="8" as="geometry" />
        </mxCell>
        <mxCell id="xdqGPpOZMYSwDx0PCrkx-9" value="" style="endArrow=diamondThin;endFill=0;endSize=24;html=1;rounded=0;entryX=0;entryY=0.5;entryDx=0;entryDy=0;exitX=1;exitY=0.25;exitDx=0;exitDy=0;" parent="1" source="orrpec60x8zTDL4D4XrW-98" target="orrpec60x8zTDL4D4XrW-99" edge="1">
          <mxGeometry width="160" relative="1" as="geometry">
            <mxPoint x="-670" y="188.75" as="sourcePoint" />
            <mxPoint x="-250" y="398.75" as="targetPoint" />
          </mxGeometry>
        </mxCell>
        <mxCell id="xdqGPpOZMYSwDx0PCrkx-10" value="ClienteDAO" style="swimlane;fontStyle=1;align=center;verticalAlign=top;childLayout=stackLayout;horizontal=1;startSize=26;horizontalStack=0;resizeParent=1;resizeParentMax=0;resizeLast=0;collapsible=1;marginBottom=0;whiteSpace=wrap;html=1;" parent="1" vertex="1">
          <mxGeometry x="-810" y="178.75" width="160" height="130" as="geometry" />
        </mxCell>
        <mxCell id="xdqGPpOZMYSwDx0PCrkx-11" value="" style="line;strokeWidth=1;fillColor=none;align=left;verticalAlign=middle;spacingTop=-1;spacingLeft=3;spacingRight=3;rotatable=0;labelPosition=right;points=[];portConstraint=eastwest;strokeColor=inherit;" parent="xdqGPpOZMYSwDx0PCrkx-10" vertex="1">
          <mxGeometry y="26" width="160" height="8" as="geometry" />
        </mxCell>
        <mxCell id="xdqGPpOZMYSwDx0PCrkx-12" value="&lt;font style=&quot;vertical-align: inherit;&quot;&gt;&lt;font style=&quot;vertical-align: inherit;&quot;&gt;+ agregarCliente(): void&lt;/font&gt;&lt;/font&gt;&lt;div&gt;&lt;font style=&quot;vertical-align: inherit;&quot;&gt;&lt;font style=&quot;vertical-align: inherit;&quot;&gt;+ modificarCliente(): void&lt;/font&gt;&lt;/font&gt;&lt;/div&gt;&lt;div&gt;&lt;font style=&quot;vertical-align: inherit;&quot;&gt;&lt;font style=&quot;vertical-align: inherit;&quot;&gt;+ eliminarCliente(): void&lt;/font&gt;&lt;/font&gt;&lt;/div&gt;&lt;div&gt;&lt;font style=&quot;vertical-align: inherit;&quot;&gt;&lt;font style=&quot;vertical-align: inherit;&quot;&gt;+ buscarCliente(): Cliente&lt;/font&gt;&lt;/font&gt;&lt;/div&gt;&lt;div&gt;&lt;font style=&quot;vertical-align: inherit;&quot;&gt;&lt;font style=&quot;vertical-align: inherit;&quot;&gt;+ lista(): List&amp;lt;Cliente&amp;gt;&lt;/font&gt;&lt;/font&gt;&lt;/div&gt;" style="text;strokeColor=none;fillColor=none;align=left;verticalAlign=top;spacingLeft=4;spacingRight=4;overflow=hidden;rotatable=0;points=[[0,0.5],[1,0.5]];portConstraint=eastwest;whiteSpace=wrap;html=1;" parent="xdqGPpOZMYSwDx0PCrkx-10" vertex="1">
          <mxGeometry y="34" width="160" height="96" as="geometry" />
        </mxCell>
        <mxCell id="xdqGPpOZMYSwDx0PCrkx-15" value="" style="endArrow=diamondThin;endFill=1;endSize=24;html=1;rounded=0;entryX=0.5;entryY=0;entryDx=0;entryDy=0;exitX=0.5;exitY=1;exitDx=0;exitDy=0;" parent="1" source="orrpec60x8zTDL4D4XrW-98" target="xdqGPpOZMYSwDx0PCrkx-10" edge="1">
          <mxGeometry width="160" relative="1" as="geometry">
            <mxPoint x="-490" y="298.75" as="sourcePoint" />
            <mxPoint x="-330" y="298.75" as="targetPoint" />
          </mxGeometry>
        </mxCell>
        <mxCell id="xdqGPpOZMYSwDx0PCrkx-18" value="" style="endArrow=block;dashed=1;endFill=0;endSize=12;html=1;rounded=0;entryX=0.5;entryY=0;entryDx=0;entryDy=0;exitX=0.5;exitY=1;exitDx=0;exitDy=0;" parent="1" source="cY8aMTrf5FRth4diQvGf-30" target="cY8aMTrf5FRth4diQvGf-14" edge="1">
          <mxGeometry width="160" relative="1" as="geometry">
            <mxPoint x="350" y="420" as="sourcePoint" />
            <mxPoint x="510" y="420" as="targetPoint" />
          </mxGeometry>
        </mxCell>
        <mxCell id="xdqGPpOZMYSwDx0PCrkx-19" value="CLIENTE" style="shape=umlFrame;whiteSpace=wrap;html=1;pointerEvents=0;" parent="1" vertex="1">
          <mxGeometry x="150" y="90" width="650" height="420" as="geometry" />
        </mxCell>
        <mxCell id="xdqGPpOZMYSwDx0PCrkx-21" value="PRODUCTO" style="shape=umlFrame;whiteSpace=wrap;html=1;pointerEvents=0;width=81;height=30;" parent="1" vertex="1">
          <mxGeometry x="150" y="530" width="650" height="440" as="geometry" />
        </mxCell>
        <mxCell id="xdqGPpOZMYSwDx0PCrkx-22" value="ControladorProducto" style="swimlane;fontStyle=1;align=center;verticalAlign=top;childLayout=stackLayout;horizontal=1;startSize=26;horizontalStack=0;resizeParent=1;resizeParentMax=0;resizeLast=0;collapsible=1;marginBottom=0;whiteSpace=wrap;html=1;" parent="1" vertex="1">
          <mxGeometry x="345" y="753.25" width="180" height="148" as="geometry" />
        </mxCell>
        <mxCell id="xdqGPpOZMYSwDx0PCrkx-23" value="- vista : VistaProducto&lt;div&gt;- modelo : ProductoDAO&lt;/div&gt;&lt;div&gt;- producto : Producto&lt;/div&gt;" style="text;strokeColor=none;fillColor=none;align=left;verticalAlign=top;spacingLeft=4;spacingRight=4;overflow=hidden;rotatable=0;points=[[0,0.5],[1,0.5]];portConstraint=eastwest;whiteSpace=wrap;html=1;" parent="xdqGPpOZMYSwDx0PCrkx-22" vertex="1">
          <mxGeometry y="26" width="180" height="54" as="geometry" />
        </mxCell>
        <mxCell id="xdqGPpOZMYSwDx0PCrkx-24" value="" style="line;strokeWidth=1;fillColor=none;align=left;verticalAlign=middle;spacingTop=-1;spacingLeft=3;spacingRight=3;rotatable=0;labelPosition=right;points=[];portConstraint=eastwest;strokeColor=inherit;" parent="xdqGPpOZMYSwDx0PCrkx-22" vertex="1">
          <mxGeometry y="80" width="180" height="8" as="geometry" />
        </mxCell>
        <mxCell id="xdqGPpOZMYSwDx0PCrkx-25" value="+ actionPerformed()&lt;div&gt;+ calcularPrecioVenta(): double&lt;/div&gt;" style="text;strokeColor=none;fillColor=none;align=left;verticalAlign=top;spacingLeft=4;spacingRight=4;overflow=hidden;rotatable=0;points=[[0,0.5],[1,0.5]];portConstraint=eastwest;whiteSpace=wrap;html=1;" parent="xdqGPpOZMYSwDx0PCrkx-22" vertex="1">
          <mxGeometry y="88" width="180" height="60" as="geometry" />
        </mxCell>
        <mxCell id="xdqGPpOZMYSwDx0PCrkx-29" value="VistaProducto" style="swimlane;fontStyle=1;align=center;verticalAlign=top;childLayout=stackLayout;horizontal=1;startSize=26;horizontalStack=0;resizeParent=1;resizeParentMax=0;resizeLast=0;collapsible=1;marginBottom=0;whiteSpace=wrap;html=1;" parent="1" vertex="1">
          <mxGeometry x="170" y="910" width="160" height="34" as="geometry">
            <mxRectangle x="840" y="338" width="100" height="30" as="alternateBounds" />
          </mxGeometry>
        </mxCell>
        <mxCell id="xdqGPpOZMYSwDx0PCrkx-30" value="" style="line;strokeWidth=1;fillColor=none;align=left;verticalAlign=middle;spacingTop=-1;spacingLeft=3;spacingRight=3;rotatable=0;labelPosition=right;points=[];portConstraint=eastwest;strokeColor=inherit;" parent="xdqGPpOZMYSwDx0PCrkx-29" vertex="1">
          <mxGeometry y="26" width="160" height="8" as="geometry" />
        </mxCell>
        <mxCell id="xdqGPpOZMYSwDx0PCrkx-31" value="«interface»&lt;br&gt;&lt;div&gt;ActionListener&lt;/div&gt;" style="html=1;whiteSpace=wrap;" parent="1" vertex="1">
          <mxGeometry x="180" y="691.25" width="110" height="50" as="geometry" />
        </mxCell>
        <mxCell id="xdqGPpOZMYSwDx0PCrkx-32" value="" style="endArrow=diamondThin;endFill=0;endSize=24;html=1;rounded=0;entryX=0;entryY=0.5;entryDx=0;entryDy=0;" parent="1" source="xdqGPpOZMYSwDx0PCrkx-29" target="xdqGPpOZMYSwDx0PCrkx-25" edge="1">
          <mxGeometry width="160" relative="1" as="geometry">
            <mxPoint x="306" y="757" as="sourcePoint" />
            <mxPoint x="186" y="940" as="targetPoint" />
          </mxGeometry>
        </mxCell>
        <mxCell id="xdqGPpOZMYSwDx0PCrkx-33" value="" style="endArrow=diamondThin;endFill=1;endSize=24;html=1;rounded=0;entryX=1;entryY=0.5;entryDx=0;entryDy=0;exitX=0;exitY=0.5;exitDx=0;exitDy=0;" parent="1" source="xdqGPpOZMYSwDx0PCrkx-39" target="xdqGPpOZMYSwDx0PCrkx-23" edge="1">
          <mxGeometry width="160" relative="1" as="geometry">
            <mxPoint x="606" y="728.0000000000001" as="sourcePoint" />
            <mxPoint x="186" y="810" as="targetPoint" />
          </mxGeometry>
        </mxCell>
        <mxCell id="xdqGPpOZMYSwDx0PCrkx-34" value="" style="endArrow=diamondThin;endFill=1;endSize=24;html=1;rounded=0;entryX=1.006;entryY=1.028;entryDx=0;entryDy=0;exitX=-0.005;exitY=0.301;exitDx=0;exitDy=0;exitPerimeter=0;entryPerimeter=0;" parent="1" source="xdqGPpOZMYSwDx0PCrkx-51" target="xdqGPpOZMYSwDx0PCrkx-25" edge="1">
          <mxGeometry width="160" relative="1" as="geometry">
            <mxPoint x="606" y="908.0000000000002" as="sourcePoint" />
            <mxPoint x="486" y="880" as="targetPoint" />
          </mxGeometry>
        </mxCell>
        <mxCell id="xdqGPpOZMYSwDx0PCrkx-38" value="" style="endArrow=block;dashed=1;endFill=0;endSize=12;html=1;rounded=0;entryX=0;entryY=0.5;entryDx=0;entryDy=0;exitX=0.5;exitY=1;exitDx=0;exitDy=0;" parent="1" source="xdqGPpOZMYSwDx0PCrkx-31" target="xdqGPpOZMYSwDx0PCrkx-23" edge="1">
          <mxGeometry width="160" relative="1" as="geometry">
            <mxPoint x="356" y="880" as="sourcePoint" />
            <mxPoint x="516" y="880" as="targetPoint" />
          </mxGeometry>
        </mxCell>
        <mxCell id="xdqGPpOZMYSwDx0PCrkx-39" value="&lt;p style=&quot;margin:0px;margin-top:4px;text-align:center;&quot;&gt;&lt;b&gt;&lt;font style=&quot;vertical-align: inherit;&quot;&gt;&lt;font style=&quot;vertical-align: inherit;&quot;&gt;&lt;font style=&quot;vertical-align: inherit;&quot;&gt;&lt;font style=&quot;vertical-align: inherit;&quot;&gt;Producto&lt;/font&gt;&lt;/font&gt;&lt;/font&gt;&lt;/font&gt;&lt;/b&gt;&lt;/p&gt;&lt;hr size=&quot;1&quot; style=&quot;border-style:solid;&quot;&gt;&lt;p style=&quot;margin:0px;margin-left:4px;&quot;&gt;&lt;font style=&quot;vertical-align: inherit;&quot;&gt;&lt;font style=&quot;vertical-align: inherit;&quot;&gt;&lt;font style=&quot;vertical-align: inherit;&quot;&gt;&lt;font style=&quot;vertical-align: inherit;&quot;&gt;- código: String&lt;/font&gt;&lt;/font&gt;&lt;/font&gt;&lt;/font&gt;&lt;br&gt;&lt;/p&gt;&lt;p style=&quot;margin:0px;margin-left:4px;&quot;&gt;&lt;font style=&quot;vertical-align: inherit;&quot;&gt;&lt;font style=&quot;vertical-align: inherit;&quot;&gt;&lt;font style=&quot;vertical-align: inherit;&quot;&gt;&lt;font style=&quot;vertical-align: inherit;&quot;&gt;- descripción: String&lt;/font&gt;&lt;/font&gt;&lt;/font&gt;&lt;/font&gt;&lt;/p&gt;&lt;p style=&quot;margin:0px;margin-left:4px;&quot;&gt;&lt;font style=&quot;vertical-align: inherit;&quot;&gt;&lt;font style=&quot;vertical-align: inherit;&quot;&gt;&lt;font style=&quot;vertical-align: inherit;&quot;&gt;&lt;font style=&quot;vertical-align: inherit;&quot;&gt;- precio: double&lt;/font&gt;&lt;/font&gt;&lt;/font&gt;&lt;/font&gt;&lt;/p&gt;&lt;hr size=&quot;1&quot; style=&quot;border-style:solid;&quot;&gt;&lt;p style=&quot;margin:0px;margin-left:4px;&quot;&gt;&lt;br&gt;&lt;/p&gt;" style="verticalAlign=top;align=left;overflow=fill;html=1;whiteSpace=wrap;" parent="1" vertex="1">
          <mxGeometry x="610" y="691.25" width="160" height="90" as="geometry" />
        </mxCell>
        <mxCell id="xdqGPpOZMYSwDx0PCrkx-44" value="ClienteDAO" style="swimlane;fontStyle=1;align=center;verticalAlign=top;childLayout=stackLayout;horizontal=1;startSize=26;horizontalStack=0;resizeParent=1;resizeParentMax=0;resizeLast=0;collapsible=1;marginBottom=0;whiteSpace=wrap;html=1;" parent="1" vertex="1">
          <mxGeometry x="600" y="350" width="190" height="150" as="geometry" />
        </mxCell>
        <mxCell id="xdqGPpOZMYSwDx0PCrkx-45" value="List&amp;lt;Producto&amp;gt; listaProducto" style="text;strokeColor=none;fillColor=none;align=left;verticalAlign=top;spacingLeft=4;spacingRight=4;overflow=hidden;rotatable=0;points=[[0,0.5],[1,0.5]];portConstraint=eastwest;whiteSpace=wrap;html=1;" parent="xdqGPpOZMYSwDx0PCrkx-44" vertex="1">
          <mxGeometry y="26" width="190" height="26" as="geometry" />
        </mxCell>
        <mxCell id="xdqGPpOZMYSwDx0PCrkx-46" value="" style="line;strokeWidth=1;fillColor=none;align=left;verticalAlign=middle;spacingTop=-1;spacingLeft=3;spacingRight=3;rotatable=0;labelPosition=right;points=[];portConstraint=eastwest;strokeColor=inherit;" parent="xdqGPpOZMYSwDx0PCrkx-44" vertex="1">
          <mxGeometry y="52" width="190" height="8" as="geometry" />
        </mxCell>
        <mxCell id="xdqGPpOZMYSwDx0PCrkx-47" value="&lt;font style=&quot;vertical-align: inherit;&quot;&gt;+ agregarCliente(): void&lt;/font&gt;&lt;div&gt;&lt;font style=&quot;vertical-align: inherit;&quot;&gt;+ modificarCliente(): void&lt;/font&gt;&lt;/div&gt;&lt;div&gt;&lt;font style=&quot;vertical-align: inherit;&quot;&gt;+ eliminarCliente(): void&lt;/font&gt;&lt;/div&gt;&lt;div&gt;&lt;font style=&quot;vertical-align: inherit;&quot;&gt;+ buscarCliente(): Cliente&lt;/font&gt;&lt;/div&gt;&lt;div&gt;&lt;font style=&quot;vertical-align: inherit;&quot;&gt;+ lista(): Lista&amp;lt;Cliente&amp;gt;&lt;/font&gt;&lt;/div&gt;" style="text;strokeColor=none;fillColor=none;align=left;verticalAlign=top;spacingLeft=4;spacingRight=4;overflow=hidden;rotatable=0;points=[[0,0.5],[1,0.5]];portConstraint=eastwest;whiteSpace=wrap;html=1;" parent="xdqGPpOZMYSwDx0PCrkx-44" vertex="1">
          <mxGeometry y="60" width="190" height="90" as="geometry" />
        </mxCell>
        <mxCell id="xdqGPpOZMYSwDx0PCrkx-48" value="ProductoDAO" style="swimlane;fontStyle=1;align=center;verticalAlign=top;childLayout=stackLayout;horizontal=1;startSize=26;horizontalStack=0;resizeParent=1;resizeParentMax=0;resizeLast=0;collapsible=1;marginBottom=0;whiteSpace=wrap;html=1;" parent="1" vertex="1">
          <mxGeometry x="590" y="810.25" width="190" height="150" as="geometry" />
        </mxCell>
        <mxCell id="xdqGPpOZMYSwDx0PCrkx-49" value="List&amp;lt;Producto&amp;gt; listaProducto" style="text;strokeColor=none;fillColor=none;align=left;verticalAlign=top;spacingLeft=4;spacingRight=4;overflow=hidden;rotatable=0;points=[[0,0.5],[1,0.5]];portConstraint=eastwest;whiteSpace=wrap;html=1;" parent="xdqGPpOZMYSwDx0PCrkx-48" vertex="1">
          <mxGeometry y="26" width="190" height="26" as="geometry" />
        </mxCell>
        <mxCell id="xdqGPpOZMYSwDx0PCrkx-50" value="" style="line;strokeWidth=1;fillColor=none;align=left;verticalAlign=middle;spacingTop=-1;spacingLeft=3;spacingRight=3;rotatable=0;labelPosition=right;points=[];portConstraint=eastwest;strokeColor=inherit;" parent="xdqGPpOZMYSwDx0PCrkx-48" vertex="1">
          <mxGeometry y="52" width="190" height="8" as="geometry" />
        </mxCell>
        <mxCell id="xdqGPpOZMYSwDx0PCrkx-51" value="&lt;div&gt;+ agregarProducto(): void&amp;nbsp;&amp;nbsp;&lt;/div&gt;&lt;div&gt;+ modificarProducto(): void&amp;nbsp;&amp;nbsp;&lt;/div&gt;&lt;div&gt;+ eliminarProducto(): void&amp;nbsp;&amp;nbsp;&lt;/div&gt;&lt;div&gt;+ buscarProducto(): Producto&amp;nbsp;&amp;nbsp;&lt;/div&gt;&lt;div&gt;+ lista(): List&amp;lt;Producto&amp;gt;&lt;/div&gt;&lt;div&gt;&lt;br&gt;&lt;/div&gt;" style="text;strokeColor=none;fillColor=none;align=left;verticalAlign=top;spacingLeft=4;spacingRight=4;overflow=hidden;rotatable=0;points=[[0,0.5],[1,0.5]];portConstraint=eastwest;whiteSpace=wrap;html=1;" parent="xdqGPpOZMYSwDx0PCrkx-48" vertex="1">
          <mxGeometry y="60" width="190" height="90" as="geometry" />
        </mxCell>
        <mxCell id="_diRwMR_0CoGo02u6lR7-1" value="VENTAS" style="shape=umlFrame;whiteSpace=wrap;html=1;pointerEvents=0;width=81;height=30;" parent="1" vertex="1">
          <mxGeometry x="830" y="530" width="650" height="440" as="geometry" />
        </mxCell>
        <mxCell id="_diRwMR_0CoGo02u6lR7-2" value="ControladorVentas" style="swimlane;fontStyle=1;align=center;verticalAlign=top;childLayout=stackLayout;horizontal=1;startSize=26;horizontalStack=0;resizeParent=1;resizeParentMax=0;resizeLast=0;collapsible=1;marginBottom=0;whiteSpace=wrap;html=1;" parent="1" vertex="1">
          <mxGeometry x="1060" y="662.25" width="180" height="130" as="geometry" />
        </mxCell>
        <mxCell id="_diRwMR_0CoGo02u6lR7-3" value="- vista : VistaVentas&lt;div&gt;- modelo : VentasDAO&lt;/div&gt;&lt;div&gt;- venta : Venta&lt;/div&gt;" style="text;strokeColor=none;fillColor=none;align=left;verticalAlign=top;spacingLeft=4;spacingRight=4;overflow=hidden;rotatable=0;points=[[0,0.5],[1,0.5]];portConstraint=eastwest;whiteSpace=wrap;html=1;" parent="_diRwMR_0CoGo02u6lR7-2" vertex="1">
          <mxGeometry y="26" width="180" height="54" as="geometry" />
        </mxCell>
        <mxCell id="_diRwMR_0CoGo02u6lR7-4" value="" style="line;strokeWidth=1;fillColor=none;align=left;verticalAlign=middle;spacingTop=-1;spacingLeft=3;spacingRight=3;rotatable=0;labelPosition=right;points=[];portConstraint=eastwest;strokeColor=inherit;" parent="_diRwMR_0CoGo02u6lR7-2" vertex="1">
          <mxGeometry y="80" width="180" height="8" as="geometry" />
        </mxCell>
        <mxCell id="_diRwMR_0CoGo02u6lR7-5" value="+ actionPerformed()&lt;div&gt;&lt;div&gt;+ calcularTotales(): void&lt;/div&gt;&lt;/div&gt;" style="text;strokeColor=none;fillColor=none;align=left;verticalAlign=top;spacingLeft=4;spacingRight=4;overflow=hidden;rotatable=0;points=[[0,0.5],[1,0.5]];portConstraint=eastwest;whiteSpace=wrap;html=1;" parent="_diRwMR_0CoGo02u6lR7-2" vertex="1">
          <mxGeometry y="88" width="180" height="42" as="geometry" />
        </mxCell>
        <mxCell id="_diRwMR_0CoGo02u6lR7-6" value="VistaVentas" style="swimlane;fontStyle=1;align=center;verticalAlign=top;childLayout=stackLayout;horizontal=1;startSize=26;horizontalStack=0;resizeParent=1;resizeParentMax=0;resizeLast=0;collapsible=1;marginBottom=0;whiteSpace=wrap;html=1;" parent="1" vertex="1">
          <mxGeometry x="856" y="719.25" width="160" height="34" as="geometry">
            <mxRectangle x="840" y="338" width="100" height="30" as="alternateBounds" />
          </mxGeometry>
        </mxCell>
        <mxCell id="_diRwMR_0CoGo02u6lR7-7" value="" style="line;strokeWidth=1;fillColor=none;align=left;verticalAlign=middle;spacingTop=-1;spacingLeft=3;spacingRight=3;rotatable=0;labelPosition=right;points=[];portConstraint=eastwest;strokeColor=inherit;" parent="_diRwMR_0CoGo02u6lR7-6" vertex="1">
          <mxGeometry y="26" width="160" height="8" as="geometry" />
        </mxCell>
        <mxCell id="_diRwMR_0CoGo02u6lR7-8" value="«interface»&lt;br&gt;&lt;div&gt;ActionListener&lt;/div&gt;" style="html=1;whiteSpace=wrap;" parent="1" vertex="1">
          <mxGeometry x="1095" y="560" width="110" height="50" as="geometry" />
        </mxCell>
        <mxCell id="_diRwMR_0CoGo02u6lR7-9" value="" style="endArrow=diamondThin;endFill=0;endSize=24;html=1;rounded=0;entryX=0;entryY=0.5;entryDx=0;entryDy=0;" parent="1" source="_diRwMR_0CoGo02u6lR7-6" target="_diRwMR_0CoGo02u6lR7-3" edge="1">
          <mxGeometry width="160" relative="1" as="geometry">
            <mxPoint x="986" y="757" as="sourcePoint" />
            <mxPoint x="866" y="940" as="targetPoint" />
          </mxGeometry>
        </mxCell>
        <mxCell id="_diRwMR_0CoGo02u6lR7-10" value="" style="endArrow=diamondThin;endFill=1;endSize=24;html=1;rounded=0;entryX=1;entryY=0.5;entryDx=0;entryDy=0;exitX=0;exitY=0.5;exitDx=0;exitDy=0;" parent="1" source="_diRwMR_0CoGo02u6lR7-18" target="_diRwMR_0CoGo02u6lR7-3" edge="1">
          <mxGeometry width="160" relative="1" as="geometry">
            <mxPoint x="1286" y="728.0000000000001" as="sourcePoint" />
            <mxPoint x="866" y="810" as="targetPoint" />
          </mxGeometry>
        </mxCell>
        <mxCell id="_diRwMR_0CoGo02u6lR7-11" value="" style="endArrow=diamondThin;endFill=1;endSize=24;html=1;rounded=0;entryX=1.006;entryY=1.028;entryDx=0;entryDy=0;exitX=0;exitY=0.5;exitDx=0;exitDy=0;entryPerimeter=0;" parent="1" source="_diRwMR_0CoGo02u6lR7-20" target="_diRwMR_0CoGo02u6lR7-5" edge="1">
          <mxGeometry width="160" relative="1" as="geometry">
            <mxPoint x="1269.0500000000002" y="887.0899999999999" as="sourcePoint" />
            <mxPoint x="1166" y="880" as="targetPoint" />
          </mxGeometry>
        </mxCell>
        <mxCell id="_diRwMR_0CoGo02u6lR7-12" value="" style="endArrow=block;dashed=1;endFill=0;endSize=12;html=1;rounded=0;entryX=0.5;entryY=0;entryDx=0;entryDy=0;exitX=0.5;exitY=1;exitDx=0;exitDy=0;" parent="1" source="_diRwMR_0CoGo02u6lR7-8" target="_diRwMR_0CoGo02u6lR7-2" edge="1">
          <mxGeometry width="160" relative="1" as="geometry">
            <mxPoint x="1036" y="880" as="sourcePoint" />
            <mxPoint x="1196" y="880" as="targetPoint" />
          </mxGeometry>
        </mxCell>
        <mxCell id="_diRwMR_0CoGo02u6lR7-18" value="&lt;p style=&quot;margin:0px;margin-top:4px;text-align:center;&quot;&gt;&lt;b&gt;Venta&lt;/b&gt;&lt;/p&gt;&lt;hr size=&quot;1&quot; style=&quot;border-style:solid;&quot;&gt;&lt;p style=&quot;margin:0px;margin-left:4px;&quot;&gt;- numeroFactura: String&lt;/p&gt;&lt;p style=&quot;margin:0px;margin-left:4px;&quot;&gt;- cliente: Cliente&lt;/p&gt;&lt;p style=&quot;margin:0px;margin-left:4px;&quot;&gt;- fecha: LocalDate&lt;/p&gt;&lt;p style=&quot;margin:0px;margin-left:4px;&quot;&gt;- objetos List&amp;lt;ObjetoVenta&amp;gt;&lt;/p&gt;&lt;hr size=&quot;1&quot; style=&quot;border-style:solid;&quot;&gt;&lt;p style=&quot;margin:0px;margin-left:4px;&quot;&gt;&lt;br&gt;&lt;/p&gt;&lt;div&gt;&lt;br&gt;&lt;/div&gt;" style="verticalAlign=top;align=left;overflow=fill;html=1;whiteSpace=wrap;" parent="1" vertex="1">
          <mxGeometry x="1285" y="632.25" width="160" height="97.75" as="geometry" />
        </mxCell>
        <mxCell id="_diRwMR_0CoGo02u6lR7-19" value="&lt;p style=&quot;margin:0px;margin-top:4px;text-align:center;&quot;&gt;&lt;b&gt;ObjetoVenta&lt;/b&gt;&lt;/p&gt;&lt;hr size=&quot;1&quot; style=&quot;border-style:solid;&quot;&gt;&lt;p style=&quot;margin:0px;margin-left:4px;&quot;&gt;- producto: Producto&lt;/p&gt;&lt;p style=&quot;margin:0px;margin-left:4px;&quot;&gt;- cantidad: int&lt;/p&gt;&lt;hr size=&quot;1&quot; style=&quot;border-style:solid;&quot;&gt;&lt;p style=&quot;margin:0px;margin-left:4px;&quot;&gt;+ calcularTotales(): void&lt;/p&gt;" style="verticalAlign=top;align=left;overflow=fill;html=1;whiteSpace=wrap;" parent="1" vertex="1">
          <mxGeometry x="1040" y="830" width="160" height="90" as="geometry" />
        </mxCell>
        <mxCell id="_diRwMR_0CoGo02u6lR7-20" value="&lt;p style=&quot;margin:0px;margin-top:4px;text-align:center;&quot;&gt;&lt;b&gt;VentaDAO&lt;/b&gt;&lt;/p&gt;&lt;hr size=&quot;1&quot; style=&quot;border-style:solid;&quot;&gt;&lt;p style=&quot;margin:0px;margin-left:4px;&quot;&gt;List&amp;lt;Venta&amp;gt; listaVenta&lt;/p&gt;&lt;hr size=&quot;1&quot; style=&quot;border-style:solid;&quot;&gt;&lt;p style=&quot;margin:0px;margin-left:4px;&quot;&gt;+ guardarVenta(): void&lt;/p&gt;&lt;p style=&quot;margin:0px;margin-left:4px;&quot;&gt;+ buscarVenta(): void&lt;/p&gt;&lt;p style=&quot;margin:0px;margin-left:4px;&quot;&gt;+ lista(): List&amp;lt;Venta&amp;gt;&lt;/p&gt;" style="verticalAlign=top;align=left;overflow=fill;html=1;whiteSpace=wrap;" parent="1" vertex="1">
          <mxGeometry x="1285" y="810" width="160" height="110" as="geometry" />
        </mxCell>
        <mxCell id="_diRwMR_0CoGo02u6lR7-21" value="&lt;p style=&quot;margin:0px;margin-top:4px;text-align:center;&quot;&gt;&lt;b&gt;NoPerecedero&lt;/b&gt;&lt;/p&gt;&lt;hr size=&quot;1&quot; style=&quot;border-style:solid;&quot;&gt;&lt;p style=&quot;margin:0px;margin-left:4px;&quot;&gt;- tipo: int&lt;br&gt;&lt;/p&gt;&lt;hr size=&quot;1&quot; style=&quot;border-style:solid;&quot;&gt;&lt;p style=&quot;margin:0px;margin-left:4px;&quot;&gt;+ calcularPrecioVenta(): double&lt;/p&gt;" style="verticalAlign=top;align=left;overflow=fill;html=1;whiteSpace=wrap;" parent="1" vertex="1">
          <mxGeometry x="570" y="560" width="180" height="90" as="geometry" />
        </mxCell>
        <mxCell id="_diRwMR_0CoGo02u6lR7-22" value="&lt;p style=&quot;margin:0px;margin-top:4px;text-align:center;&quot;&gt;&lt;b&gt;Perecedero&lt;/b&gt;&lt;/p&gt;&lt;hr size=&quot;1&quot; style=&quot;border-style:solid;&quot;&gt;&lt;p style=&quot;margin:0px;margin-left:4px;&quot;&gt;- diasCaducar: int&lt;br&gt;&lt;/p&gt;&lt;hr size=&quot;1&quot; style=&quot;border-style:solid;&quot;&gt;&lt;p style=&quot;margin:0px;margin-left:4px;&quot;&gt;+ calcularPrecioVenta(): double&lt;/p&gt;" style="verticalAlign=top;align=left;overflow=fill;html=1;whiteSpace=wrap;" parent="1" vertex="1">
          <mxGeometry x="345" y="560" width="180" height="90" as="geometry" />
        </mxCell>
        <mxCell id="_diRwMR_0CoGo02u6lR7-23" value="" style="endArrow=diamondThin;endFill=1;endSize=24;html=1;rounded=0;entryX=0.528;entryY=1.002;entryDx=0;entryDy=0;entryPerimeter=0;exitX=0.5;exitY=0;exitDx=0;exitDy=0;" parent="1" source="_diRwMR_0CoGo02u6lR7-19" target="_diRwMR_0CoGo02u6lR7-5" edge="1">
          <mxGeometry width="160" relative="1" as="geometry">
            <mxPoint x="760" y="750" as="sourcePoint" />
            <mxPoint x="920" y="750" as="targetPoint" />
          </mxGeometry>
        </mxCell>
        <mxCell id="_diRwMR_0CoGo02u6lR7-25" value="ControladorInformePerecederos" style="swimlane;fontStyle=1;align=center;verticalAlign=top;childLayout=stackLayout;horizontal=1;startSize=26;horizontalStack=0;resizeParent=1;resizeParentMax=0;resizeLast=0;collapsible=1;marginBottom=0;whiteSpace=wrap;html=1;" parent="1" vertex="1">
          <mxGeometry x="1722" y="235" width="200" height="110" as="geometry" />
        </mxCell>
        <mxCell id="_diRwMR_0CoGo02u6lR7-26" value="- vista :&amp;nbsp;&lt;span style=&quot;text-align: center;&quot;&gt;VistaInformePerecederos&lt;/span&gt;&lt;div&gt;- modelo : ProductoDAO&lt;/div&gt;" style="text;strokeColor=none;fillColor=none;align=left;verticalAlign=top;spacingLeft=4;spacingRight=4;overflow=hidden;rotatable=0;points=[[0,0.5],[1,0.5]];portConstraint=eastwest;whiteSpace=wrap;html=1;" parent="_diRwMR_0CoGo02u6lR7-25" vertex="1">
          <mxGeometry y="26" width="200" height="34" as="geometry" />
        </mxCell>
        <mxCell id="_diRwMR_0CoGo02u6lR7-27" value="" style="line;strokeWidth=1;fillColor=none;align=left;verticalAlign=middle;spacingTop=-1;spacingLeft=3;spacingRight=3;rotatable=0;labelPosition=right;points=[];portConstraint=eastwest;strokeColor=inherit;" parent="_diRwMR_0CoGo02u6lR7-25" vertex="1">
          <mxGeometry y="60" width="200" height="8" as="geometry" />
        </mxCell>
        <mxCell id="_diRwMR_0CoGo02u6lR7-28" value="+ actionPerformed(): void&lt;div&gt;+ mostrarInforme(): void&amp;nbsp;&lt;/div&gt;" style="text;strokeColor=none;fillColor=none;align=left;verticalAlign=top;spacingLeft=4;spacingRight=4;overflow=hidden;rotatable=0;points=[[0,0.5],[1,0.5]];portConstraint=eastwest;whiteSpace=wrap;html=1;" parent="_diRwMR_0CoGo02u6lR7-25" vertex="1">
          <mxGeometry y="68" width="200" height="42" as="geometry" />
        </mxCell>
        <mxCell id="_diRwMR_0CoGo02u6lR7-29" value="VistaInformePerecederos" style="swimlane;fontStyle=1;align=center;verticalAlign=top;childLayout=stackLayout;horizontal=1;startSize=26;horizontalStack=0;resizeParent=1;resizeParentMax=0;resizeLast=0;collapsible=1;marginBottom=0;whiteSpace=wrap;html=1;" parent="1" vertex="1">
          <mxGeometry x="1518" y="286" width="160" height="34" as="geometry">
            <mxRectangle x="840" y="338" width="100" height="30" as="alternateBounds" />
          </mxGeometry>
        </mxCell>
        <mxCell id="_diRwMR_0CoGo02u6lR7-30" value="" style="line;strokeWidth=1;fillColor=none;align=left;verticalAlign=middle;spacingTop=-1;spacingLeft=3;spacingRight=3;rotatable=0;labelPosition=right;points=[];portConstraint=eastwest;strokeColor=inherit;" parent="_diRwMR_0CoGo02u6lR7-29" vertex="1">
          <mxGeometry y="26" width="160" height="8" as="geometry" />
        </mxCell>
        <mxCell id="_diRwMR_0CoGo02u6lR7-31" value="ProductoDAO" style="swimlane;fontStyle=1;align=center;verticalAlign=top;childLayout=stackLayout;horizontal=1;startSize=26;horizontalStack=0;resizeParent=1;resizeParentMax=0;resizeLast=0;collapsible=1;marginBottom=0;whiteSpace=wrap;html=1;" parent="1" vertex="1">
          <mxGeometry x="1952" y="335" width="190" height="150" as="geometry" />
        </mxCell>
        <mxCell id="_diRwMR_0CoGo02u6lR7-32" value="List&amp;lt;Producto&amp;gt; listaProducto" style="text;strokeColor=none;fillColor=none;align=left;verticalAlign=top;spacingLeft=4;spacingRight=4;overflow=hidden;rotatable=0;points=[[0,0.5],[1,0.5]];portConstraint=eastwest;whiteSpace=wrap;html=1;" parent="_diRwMR_0CoGo02u6lR7-31" vertex="1">
          <mxGeometry y="26" width="190" height="26" as="geometry" />
        </mxCell>
        <mxCell id="_diRwMR_0CoGo02u6lR7-33" value="" style="line;strokeWidth=1;fillColor=none;align=left;verticalAlign=middle;spacingTop=-1;spacingLeft=3;spacingRight=3;rotatable=0;labelPosition=right;points=[];portConstraint=eastwest;strokeColor=inherit;" parent="_diRwMR_0CoGo02u6lR7-31" vertex="1">
          <mxGeometry y="52" width="190" height="8" as="geometry" />
        </mxCell>
        <mxCell id="_diRwMR_0CoGo02u6lR7-34" value="&lt;div&gt;+ agregarProducto(): void&amp;nbsp;&amp;nbsp;&lt;/div&gt;&lt;div&gt;+ modificarProducto(): void&amp;nbsp;&amp;nbsp;&lt;/div&gt;&lt;div&gt;+ eliminarProducto(): void&amp;nbsp;&amp;nbsp;&lt;/div&gt;&lt;div&gt;+ buscarProducto(): Producto&amp;nbsp;&amp;nbsp;&lt;/div&gt;&lt;div&gt;+ lista(): List&amp;lt;Producto&amp;gt;&lt;/div&gt;&lt;div&gt;&lt;br&gt;&lt;/div&gt;" style="text;strokeColor=none;fillColor=none;align=left;verticalAlign=top;spacingLeft=4;spacingRight=4;overflow=hidden;rotatable=0;points=[[0,0.5],[1,0.5]];portConstraint=eastwest;whiteSpace=wrap;html=1;" parent="_diRwMR_0CoGo02u6lR7-31" vertex="1">
          <mxGeometry y="60" width="190" height="90" as="geometry" />
        </mxCell>
        <mxCell id="_diRwMR_0CoGo02u6lR7-35" value="" style="endArrow=diamondThin;endFill=1;endSize=24;html=1;rounded=0;entryX=0.845;entryY=1.041;entryDx=0;entryDy=0;exitX=-0.008;exitY=0.107;exitDx=0;exitDy=0;entryPerimeter=0;exitPerimeter=0;" parent="1" source="_diRwMR_0CoGo02u6lR7-34" target="_diRwMR_0CoGo02u6lR7-28" edge="1">
          <mxGeometry width="160" relative="1" as="geometry">
            <mxPoint x="1924" y="505" as="sourcePoint" />
            <mxPoint x="1880" y="433" as="targetPoint" />
          </mxGeometry>
        </mxCell>
        <mxCell id="_diRwMR_0CoGo02u6lR7-36" value="" style="endArrow=diamondThin;endFill=0;endSize=24;html=1;rounded=0;entryX=0;entryY=0.5;entryDx=0;entryDy=0;" parent="1" edge="1">
          <mxGeometry width="160" relative="1" as="geometry">
            <mxPoint x="1678" y="294" as="sourcePoint" />
            <mxPoint x="1722" y="286" as="targetPoint" />
          </mxGeometry>
        </mxCell>
        <mxCell id="_diRwMR_0CoGo02u6lR7-37" value="«interface»&lt;br&gt;&lt;div&gt;ActionListener&lt;/div&gt;" style="html=1;whiteSpace=wrap;" parent="1" vertex="1">
          <mxGeometry x="1767" y="115" width="110" height="50" as="geometry" />
        </mxCell>
        <mxCell id="_diRwMR_0CoGo02u6lR7-38" value="" style="endArrow=block;dashed=1;endFill=0;endSize=12;html=1;rounded=0;entryX=0.5;entryY=0;entryDx=0;entryDy=0;exitX=0.5;exitY=1;exitDx=0;exitDy=0;" parent="1" source="_diRwMR_0CoGo02u6lR7-37" target="_diRwMR_0CoGo02u6lR7-25" edge="1">
          <mxGeometry width="160" relative="1" as="geometry">
            <mxPoint x="1809" y="135" as="sourcePoint" />
            <mxPoint x="1811" y="187" as="targetPoint" />
          </mxGeometry>
        </mxCell>
        <mxCell id="_diRwMR_0CoGo02u6lR7-39" value="INFORME PERECEDEROS" style="shape=umlFrame;whiteSpace=wrap;html=1;pointerEvents=0;width=110;height=40;" parent="1" vertex="1">
          <mxGeometry x="1510" y="90" width="650" height="420" as="geometry" />
        </mxCell>
        <mxCell id="_diRwMR_0CoGo02u6lR7-40" value="ControladorInformeNoPerecederos" style="swimlane;fontStyle=1;align=center;verticalAlign=top;childLayout=stackLayout;horizontal=1;startSize=26;horizontalStack=0;resizeParent=1;resizeParentMax=0;resizeLast=0;collapsible=1;marginBottom=0;whiteSpace=wrap;html=1;" parent="1" vertex="1">
          <mxGeometry x="1718" y="680.25" width="208" height="110" as="geometry" />
        </mxCell>
        <mxCell id="_diRwMR_0CoGo02u6lR7-41" value="- vista :&amp;nbsp;&lt;span style=&quot;text-align: center;&quot;&gt;VistaInformeNoPerecederos&lt;/span&gt;&lt;div&gt;- modelo : ProductoDAO&lt;/div&gt;" style="text;strokeColor=none;fillColor=none;align=left;verticalAlign=top;spacingLeft=4;spacingRight=4;overflow=hidden;rotatable=0;points=[[0,0.5],[1,0.5]];portConstraint=eastwest;whiteSpace=wrap;html=1;" parent="_diRwMR_0CoGo02u6lR7-40" vertex="1">
          <mxGeometry y="26" width="208" height="34" as="geometry" />
        </mxCell>
        <mxCell id="_diRwMR_0CoGo02u6lR7-42" value="" style="line;strokeWidth=1;fillColor=none;align=left;verticalAlign=middle;spacingTop=-1;spacingLeft=3;spacingRight=3;rotatable=0;labelPosition=right;points=[];portConstraint=eastwest;strokeColor=inherit;" parent="_diRwMR_0CoGo02u6lR7-40" vertex="1">
          <mxGeometry y="60" width="208" height="8" as="geometry" />
        </mxCell>
        <mxCell id="_diRwMR_0CoGo02u6lR7-43" value="+ actionPerformed(): void&lt;div&gt;+ mostrarInforme(): void&amp;nbsp;&lt;/div&gt;" style="text;strokeColor=none;fillColor=none;align=left;verticalAlign=top;spacingLeft=4;spacingRight=4;overflow=hidden;rotatable=0;points=[[0,0.5],[1,0.5]];portConstraint=eastwest;whiteSpace=wrap;html=1;" parent="_diRwMR_0CoGo02u6lR7-40" vertex="1">
          <mxGeometry y="68" width="208" height="42" as="geometry" />
        </mxCell>
        <mxCell id="_diRwMR_0CoGo02u6lR7-44" value="VistaInformeNoPerecederos" style="swimlane;fontStyle=1;align=center;verticalAlign=top;childLayout=stackLayout;horizontal=1;startSize=26;horizontalStack=0;resizeParent=1;resizeParentMax=0;resizeLast=0;collapsible=1;marginBottom=0;whiteSpace=wrap;html=1;" parent="1" vertex="1">
          <mxGeometry x="1518" y="731.25" width="162" height="34" as="geometry">
            <mxRectangle x="840" y="338" width="100" height="30" as="alternateBounds" />
          </mxGeometry>
        </mxCell>
        <mxCell id="_diRwMR_0CoGo02u6lR7-45" value="" style="line;strokeWidth=1;fillColor=none;align=left;verticalAlign=middle;spacingTop=-1;spacingLeft=3;spacingRight=3;rotatable=0;labelPosition=right;points=[];portConstraint=eastwest;strokeColor=inherit;" parent="_diRwMR_0CoGo02u6lR7-44" vertex="1">
          <mxGeometry y="26" width="162" height="8" as="geometry" />
        </mxCell>
        <mxCell id="_diRwMR_0CoGo02u6lR7-46" value="ProductoDAO" style="swimlane;fontStyle=1;align=center;verticalAlign=top;childLayout=stackLayout;horizontal=1;startSize=26;horizontalStack=0;resizeParent=1;resizeParentMax=0;resizeLast=0;collapsible=1;marginBottom=0;whiteSpace=wrap;html=1;" parent="1" vertex="1">
          <mxGeometry x="1952" y="780.25" width="190" height="150" as="geometry" />
        </mxCell>
        <mxCell id="_diRwMR_0CoGo02u6lR7-47" value="List&amp;lt;Producto&amp;gt; listaProducto" style="text;strokeColor=none;fillColor=none;align=left;verticalAlign=top;spacingLeft=4;spacingRight=4;overflow=hidden;rotatable=0;points=[[0,0.5],[1,0.5]];portConstraint=eastwest;whiteSpace=wrap;html=1;" parent="_diRwMR_0CoGo02u6lR7-46" vertex="1">
          <mxGeometry y="26" width="190" height="26" as="geometry" />
        </mxCell>
        <mxCell id="_diRwMR_0CoGo02u6lR7-48" value="" style="line;strokeWidth=1;fillColor=none;align=left;verticalAlign=middle;spacingTop=-1;spacingLeft=3;spacingRight=3;rotatable=0;labelPosition=right;points=[];portConstraint=eastwest;strokeColor=inherit;" parent="_diRwMR_0CoGo02u6lR7-46" vertex="1">
          <mxGeometry y="52" width="190" height="8" as="geometry" />
        </mxCell>
        <mxCell id="_diRwMR_0CoGo02u6lR7-49" value="&lt;div&gt;+ agregarProducto(): void&amp;nbsp;&amp;nbsp;&lt;/div&gt;&lt;div&gt;+ modificarProducto(): void&amp;nbsp;&amp;nbsp;&lt;/div&gt;&lt;div&gt;+ eliminarProducto(): void&amp;nbsp;&amp;nbsp;&lt;/div&gt;&lt;div&gt;+ buscarProducto(): Producto&amp;nbsp;&amp;nbsp;&lt;/div&gt;&lt;div&gt;+ lista(): List&amp;lt;Producto&amp;gt;&lt;/div&gt;&lt;div&gt;&lt;br&gt;&lt;/div&gt;" style="text;strokeColor=none;fillColor=none;align=left;verticalAlign=top;spacingLeft=4;spacingRight=4;overflow=hidden;rotatable=0;points=[[0,0.5],[1,0.5]];portConstraint=eastwest;whiteSpace=wrap;html=1;" parent="_diRwMR_0CoGo02u6lR7-46" vertex="1">
          <mxGeometry y="60" width="190" height="90" as="geometry" />
        </mxCell>
        <mxCell id="_diRwMR_0CoGo02u6lR7-50" value="" style="endArrow=diamondThin;endFill=1;endSize=24;html=1;rounded=0;entryX=0.845;entryY=1.041;entryDx=0;entryDy=0;exitX=-0.008;exitY=0.107;exitDx=0;exitDy=0;entryPerimeter=0;exitPerimeter=0;" parent="1" source="_diRwMR_0CoGo02u6lR7-49" target="_diRwMR_0CoGo02u6lR7-43" edge="1">
          <mxGeometry width="160" relative="1" as="geometry">
            <mxPoint x="1924" y="950.25" as="sourcePoint" />
            <mxPoint x="1880" y="878.25" as="targetPoint" />
          </mxGeometry>
        </mxCell>
        <mxCell id="_diRwMR_0CoGo02u6lR7-51" value="" style="endArrow=diamondThin;endFill=0;endSize=24;html=1;rounded=0;entryX=0;entryY=0.5;entryDx=0;entryDy=0;exitX=1;exitY=0.5;exitDx=0;exitDy=0;" parent="1" source="_diRwMR_0CoGo02u6lR7-44" target="_diRwMR_0CoGo02u6lR7-41" edge="1">
          <mxGeometry width="160" relative="1" as="geometry">
            <mxPoint x="1678" y="739.25" as="sourcePoint" />
            <mxPoint x="1722" y="731.25" as="targetPoint" />
          </mxGeometry>
        </mxCell>
        <mxCell id="_diRwMR_0CoGo02u6lR7-52" value="«interface»&lt;br&gt;&lt;div&gt;ActionListener&lt;/div&gt;" style="html=1;whiteSpace=wrap;" parent="1" vertex="1">
          <mxGeometry x="1767" y="560.25" width="110" height="50" as="geometry" />
        </mxCell>
        <mxCell id="_diRwMR_0CoGo02u6lR7-53" value="" style="endArrow=block;dashed=1;endFill=0;endSize=12;html=1;rounded=0;entryX=0.5;entryY=0;entryDx=0;entryDy=0;exitX=0.5;exitY=1;exitDx=0;exitDy=0;" parent="1" source="_diRwMR_0CoGo02u6lR7-52" target="_diRwMR_0CoGo02u6lR7-40" edge="1">
          <mxGeometry width="160" relative="1" as="geometry">
            <mxPoint x="1809" y="580.25" as="sourcePoint" />
            <mxPoint x="1811" y="632.25" as="targetPoint" />
          </mxGeometry>
        </mxCell>
        <mxCell id="_diRwMR_0CoGo02u6lR7-54" value="INFORME NO PERECEDEROS" style="shape=umlFrame;whiteSpace=wrap;html=1;pointerEvents=0;width=110;height=40;" parent="1" vertex="1">
          <mxGeometry x="1510" y="530" width="650" height="440" as="geometry" />
        </mxCell>
        <mxCell id="_diRwMR_0CoGo02u6lR7-57" value="es un" style="endArrow=block;endSize=16;endFill=0;html=1;rounded=0;exitX=0.5;exitY=1;exitDx=0;exitDy=0;entryX=0.75;entryY=0;entryDx=0;entryDy=0;" parent="1" source="_diRwMR_0CoGo02u6lR7-21" target="xdqGPpOZMYSwDx0PCrkx-39" edge="1">
          <mxGeometry x="-0.0922" y="-3" width="160" relative="1" as="geometry">
            <mxPoint x="270" y="820" as="sourcePoint" />
            <mxPoint x="480" y="800" as="targetPoint" />
            <mxPoint as="offset" />
          </mxGeometry>
        </mxCell>
        <mxCell id="_diRwMR_0CoGo02u6lR7-58" value="es un" style="endArrow=block;endSize=16;endFill=0;html=1;rounded=0;exitX=1;exitY=1;exitDx=0;exitDy=0;entryX=0;entryY=0.25;entryDx=0;entryDy=0;" parent="1" source="_diRwMR_0CoGo02u6lR7-22" target="xdqGPpOZMYSwDx0PCrkx-39" edge="1">
          <mxGeometry x="-0.0922" y="-3" width="160" relative="1" as="geometry">
            <mxPoint x="690" y="640" as="sourcePoint" />
            <mxPoint x="740" y="701" as="targetPoint" />
            <mxPoint as="offset" />
          </mxGeometry>
        </mxCell>
        <mxCell id="_diRwMR_0CoGo02u6lR7-59" value="INFORME VENTAS" style="shape=umlFrame;whiteSpace=wrap;html=1;pointerEvents=0;width=110;height=40;" parent="1" vertex="1">
          <mxGeometry x="825" y="90" width="655" height="420" as="geometry" />
        </mxCell>
        <mxCell id="_diRwMR_0CoGo02u6lR7-60" value="ControladorInformeVentas" style="swimlane;fontStyle=1;align=center;verticalAlign=top;childLayout=stackLayout;horizontal=1;startSize=26;horizontalStack=0;resizeParent=1;resizeParentMax=0;resizeLast=0;collapsible=1;marginBottom=0;whiteSpace=wrap;html=1;" parent="1" vertex="1">
          <mxGeometry x="1054" y="240" width="200" height="110" as="geometry" />
        </mxCell>
        <mxCell id="_diRwMR_0CoGo02u6lR7-61" value="- vista :&amp;nbsp;&lt;span style=&quot;text-align: center;&quot;&gt;VistaInformeVentas&lt;/span&gt;&lt;div&gt;- modelo : VentaDAO&lt;/div&gt;" style="text;strokeColor=none;fillColor=none;align=left;verticalAlign=top;spacingLeft=4;spacingRight=4;overflow=hidden;rotatable=0;points=[[0,0.5],[1,0.5]];portConstraint=eastwest;whiteSpace=wrap;html=1;" parent="_diRwMR_0CoGo02u6lR7-60" vertex="1">
          <mxGeometry y="26" width="200" height="34" as="geometry" />
        </mxCell>
        <mxCell id="_diRwMR_0CoGo02u6lR7-62" value="" style="line;strokeWidth=1;fillColor=none;align=left;verticalAlign=middle;spacingTop=-1;spacingLeft=3;spacingRight=3;rotatable=0;labelPosition=right;points=[];portConstraint=eastwest;strokeColor=inherit;" parent="_diRwMR_0CoGo02u6lR7-60" vertex="1">
          <mxGeometry y="60" width="200" height="8" as="geometry" />
        </mxCell>
        <mxCell id="_diRwMR_0CoGo02u6lR7-63" value="+ actionPerformed(): void&lt;div&gt;+ mostrarInforme(): void&amp;nbsp;&lt;/div&gt;" style="text;strokeColor=none;fillColor=none;align=left;verticalAlign=top;spacingLeft=4;spacingRight=4;overflow=hidden;rotatable=0;points=[[0,0.5],[1,0.5]];portConstraint=eastwest;whiteSpace=wrap;html=1;" parent="_diRwMR_0CoGo02u6lR7-60" vertex="1">
          <mxGeometry y="68" width="200" height="42" as="geometry" />
        </mxCell>
        <mxCell id="_diRwMR_0CoGo02u6lR7-64" value="VistaInformeVentas" style="swimlane;fontStyle=1;align=center;verticalAlign=top;childLayout=stackLayout;horizontal=1;startSize=26;horizontalStack=0;resizeParent=1;resizeParentMax=0;resizeLast=0;collapsible=1;marginBottom=0;whiteSpace=wrap;html=1;" parent="1" vertex="1">
          <mxGeometry x="850" y="291" width="160" height="34" as="geometry">
            <mxRectangle x="840" y="338" width="100" height="30" as="alternateBounds" />
          </mxGeometry>
        </mxCell>
        <mxCell id="_diRwMR_0CoGo02u6lR7-65" value="" style="line;strokeWidth=1;fillColor=none;align=left;verticalAlign=middle;spacingTop=-1;spacingLeft=3;spacingRight=3;rotatable=0;labelPosition=right;points=[];portConstraint=eastwest;strokeColor=inherit;" parent="_diRwMR_0CoGo02u6lR7-64" vertex="1">
          <mxGeometry y="26" width="160" height="8" as="geometry" />
        </mxCell>
        <mxCell id="_diRwMR_0CoGo02u6lR7-70" value="" style="endArrow=diamondThin;endFill=1;endSize=24;html=1;rounded=0;entryX=0.845;entryY=1.041;entryDx=0;entryDy=0;exitX=0;exitY=0.5;exitDx=0;exitDy=0;entryPerimeter=0;" parent="1" source="_diRwMR_0CoGo02u6lR7-74" target="_diRwMR_0CoGo02u6lR7-63" edge="1">
          <mxGeometry width="160" relative="1" as="geometry">
            <mxPoint x="1282.4800000000005" y="409.6300000000001" as="sourcePoint" />
            <mxPoint x="1212" y="438" as="targetPoint" />
          </mxGeometry>
        </mxCell>
        <mxCell id="_diRwMR_0CoGo02u6lR7-71" value="" style="endArrow=diamondThin;endFill=0;endSize=24;html=1;rounded=0;entryX=0;entryY=0.5;entryDx=0;entryDy=0;" parent="1" edge="1">
          <mxGeometry width="160" relative="1" as="geometry">
            <mxPoint x="1010" y="299" as="sourcePoint" />
            <mxPoint x="1054" y="291" as="targetPoint" />
          </mxGeometry>
        </mxCell>
        <mxCell id="_diRwMR_0CoGo02u6lR7-72" value="«interface»&lt;br&gt;&lt;div&gt;ActionListener&lt;/div&gt;" style="html=1;whiteSpace=wrap;" parent="1" vertex="1">
          <mxGeometry x="1099" y="120" width="110" height="50" as="geometry" />
        </mxCell>
        <mxCell id="_diRwMR_0CoGo02u6lR7-73" value="" style="endArrow=block;dashed=1;endFill=0;endSize=12;html=1;rounded=0;entryX=0.5;entryY=0;entryDx=0;entryDy=0;exitX=0.5;exitY=1;exitDx=0;exitDy=0;" parent="1" source="_diRwMR_0CoGo02u6lR7-72" target="_diRwMR_0CoGo02u6lR7-60" edge="1">
          <mxGeometry width="160" relative="1" as="geometry">
            <mxPoint x="1141" y="140" as="sourcePoint" />
            <mxPoint x="1143" y="192" as="targetPoint" />
          </mxGeometry>
        </mxCell>
        <mxCell id="_diRwMR_0CoGo02u6lR7-74" value="&lt;p style=&quot;margin:0px;margin-top:4px;text-align:center;&quot;&gt;&lt;b&gt;VentaDAO&lt;/b&gt;&lt;/p&gt;&lt;hr size=&quot;1&quot; style=&quot;border-style:solid;&quot;&gt;&lt;p style=&quot;margin:0px;margin-left:4px;&quot;&gt;List&amp;lt;Venta&amp;gt; listaVenta&lt;/p&gt;&lt;hr size=&quot;1&quot; style=&quot;border-style:solid;&quot;&gt;&lt;p style=&quot;margin:0px;margin-left:4px;&quot;&gt;+ guardarVenta(): void&lt;/p&gt;&lt;p style=&quot;margin:0px;margin-left:4px;&quot;&gt;+ buscarVenta(): void&lt;/p&gt;&lt;p style=&quot;margin:0px;margin-left:4px;&quot;&gt;+ lista(): List&amp;lt;Venta&amp;gt;&lt;/p&gt;&lt;p style=&quot;margin:0px;margin-left:4px;&quot;&gt;&lt;br&gt;&lt;/p&gt;" style="verticalAlign=top;align=left;overflow=fill;html=1;whiteSpace=wrap;" parent="1" vertex="1">
          <mxGeometry x="1290" y="355" width="160" height="105" as="geometry" />
        </mxCell>
      </root>
    </mxGraphModel>
  </diagram>
</mxfile>
